HIERARCHY
ROOT root
{
	OFFSET 0.000000 0.000000 0.000000
	CHANNELS 6 Xposition Yposition Zposition Zrotation Yrotation Xrotation
	JOINT lhip
	{
		OFFSET 0.058581 -0.082280 -0.017664
		CHANNELS 3 Zrotation Yrotation Xrotation
		JOINT lknee
		{
			OFFSET 0.043451 -0.386469 0.008037
			CHANNELS 3 Zrotation Yrotation Xrotation
			JOINT lankle
			{
				OFFSET -0.014790 -0.426874 -0.037428
				CHANNELS 3 Zrotation Yrotation Xrotation
				JOINT ltoe
				{
					OFFSET 0.041054 -0.060286 0.122042
					CHANNELS 3 Zrotation Yrotation Xrotation
					End Site
					{
						OFFSET 0.000000 0.000000 0.000000
					}
				}
			}
		}
	}
	JOINT rhip
	{
		OFFSET -0.060310 -0.090513 -0.013543
		CHANNELS 3 Zrotation Yrotation Xrotation
		JOINT rknee
		{
			OFFSET -0.043257 -0.383688 -0.004843
			CHANNELS 3 Zrotation Yrotation Xrotation
			JOINT rankle
			{
				OFFSET 0.019056 -0.420046 -0.034562
				CHANNELS 3 Zrotation Yrotation Xrotation
				JOINT rtoe
				{
					OFFSET -0.034840 -0.062106 0.130323
					CHANNELS 3 Zrotation Yrotation Xrotation
					End Site
					{
						OFFSET 0.000000 0.000000 0.000000
					}
				}
			}
		}
	}
	JOINT lowerback
	{
		OFFSET 0.004439 0.124404 -0.038385
		CHANNELS 3 Zrotation Yrotation Xrotation
		JOINT upperback
		{
			OFFSET 0.004488 0.137956 0.026820
			CHANNELS 3 Zrotation Yrotation Xrotation
			JOINT chest
			{
				OFFSET -0.002265 0.056032 0.002855
				CHANNELS 3 Zrotation Yrotation Xrotation
				JOINT lowerneck
				{
					OFFSET -0.013390 0.211636 -0.033468
					CHANNELS 3 Zrotation Yrotation Xrotation
					JOINT upperneck
					{
						OFFSET 0.010113 0.088937 0.050410
						CHANNELS 3 Zrotation Yrotation Xrotation
						End Site
						{
							OFFSET 0.000000 0.000000 0.000000
						}
					}
				}
				JOINT lclavicle
				{
					OFFSET 0.071702 0.114000 -0.018898
					CHANNELS 3 Zrotation Yrotation Xrotation
					JOINT lshoulder
					{
						OFFSET 0.122921 0.045205 -0.019046
						CHANNELS 3 Zrotation Yrotation Xrotation
						JOINT lelbow
						{
							OFFSET 0.255332 -0.015649 -0.022946
							CHANNELS 3 Zrotation Yrotation Xrotation
							JOINT lwrist
							{
								OFFSET 0.265709 0.012698 -0.007375
								CHANNELS 3 Zrotation Yrotation Xrotation
								End Site
								{
									OFFSET 0.000000 0.000000 0.000000
								}
							}
						}
					}
				}
				JOINT rclavicle
				{
					OFFSET -0.082954 0.112472 -0.023707
					CHANNELS 3 Zrotation Yrotation Xrotation
					JOINT rshoulder
					{
						OFFSET -0.113228 0.046853 -0.008472
						CHANNELS 3 Zrotation Yrotation Xrotation
						JOINT relbow
						{
							OFFSET -0.260127 -0.014369 -0.031269
							CHANNELS 3 Zrotation Yrotation Xrotation
							JOINT rwrist
							{
								OFFSET -0.269108 0.006794 -0.006027
								CHANNELS 3 Zrotation Yrotation Xrotation
								End Site
								{
									OFFSET 0.000000 0.000000 0.000000
								}
							}
						}
					}
				}
			}
		}
	}
}
MOTION
Frames: 6
Frame Time: 0.033333
0.048800 0.222905 1.003639 85.670653 2.163990 88.105890 5.008992 2.051151 -1.480400 -0.427799 -4.090647 10.235595 -0.708045 9.826442 -8.783831 0.000000 -0.000000 0.000000 -0.240125 -2.301455 0.476701 -1.691511 4.499466 3.826592 3.411601 -4.831882 -4.578633 0.000000 -0.000000 0.000000 0.792143 1.901210 7.534569 2.051003 -2.627965 3.255612 1.939922 -1.170876 -0.638747 7.934476 -6.077507 -14.401663 9.977370 -9.343522 -8.763418 -24.384009 -0.855909 4.927090 -58.189944 -2.969505 9.258998 6.346957 -16.324938 9.243111 -7.550224 -4.189551 -2.040011 22.506601 8.329014 1.054013 57.490933 8.852401 14.092756 -3.536426 19.466767 4.368370 13.133345 1.359172 -4.860020 
0.047766 0.221886 1.002991 86.924225 2.296575 87.623134 5.344497 1.986829 -2.675103 -0.833810 -4.929282 13.126333 -1.045200 9.367145 -9.593755 0.000000 -0.000000 0.000000 0.086929 -2.485615 0.683926 -1.873582 4.116685 4.837272 3.269852 -5.129289 -5.358022 0.000000 -0.000000 0.000000 0.942002 1.520130 8.355886 2.094746 -3.532586 2.685909 1.764257 -1.791590 0.238806 8.239703 -5.056092 -14.112036 9.395463 -9.359709 -8.071530 -23.941539 -1.578921 5.085881 -56.513917 -2.054766 10.388546 4.922285 -19.351633 13.131666 -6.195657 -4.383855 1.411862 22.335119 7.131121 0.283022 56.510673 8.916402 12.665724 -4.798834 22.763942 3.129203 10.503462 1.319290 -5.007324 
0.046014 0.221699 1.002422 87.343574 2.225210 87.355782 5.492525 1.747349 -3.727653 -1.409316 -5.147879 15.522008 -0.790120 9.334148 -10.240123 0.000000 -0.000000 0.000000 -0.111519 -2.760495 0.618378 -1.638620 4.252351 5.517773 3.276972 -5.022854 -5.830777 0.000000 -0.000000 0.000000 0.936239 1.879540 8.841172 2.152536 -4.011942 2.708254 1.582724 -1.974703 0.375248 8.078293 -4.554613 -13.441727 9.058191 -9.499738 -7.503451 -23.480109 -2.925860 5.491471 -55.436726 -1.832243 11.358689 4.377510 -21.234415 16.193202 -5.133786 -2.749627 4.552712 21.919071 6.908000 0.212814 56.210677 8.826310 11.205300 -7.551562 24.816697 0.468624 8.295738 1.641257 -5.337573 
0.044005 0.222958 1.001267 87.336377 2.358322 87.062724 5.827232 1.262748 -4.405068 -1.862462 -4.701438 17.210709 -0.561081 9.564188 -10.687654 0.000000 -0.000000 0.000000 0.069719 -2.656691 0.429203 -1.631041 4.372180 6.282887 3.121290 -5.301546 -6.042544 0.000000 -0.000000 0.000000 1.227635 2.312533 9.413228 2.185274 -3.798200 3.133421 1.517682 -1.766484 0.050893 7.702726 -4.748235 -12.644817 8.660123 -9.385936 -6.867433 -23.551907 -4.967820 5.764226 -54.505065 -2.743448 11.818957 4.622306 -21.127742 16.378492 -5.128423 -2.138803 4.936621 21.403987 8.642245 1.015080 54.674365 8.948112 10.350431 -9.580957 24.020243 -2.795281 6.573831 2.121059 -6.130817 
0.042240 0.223854 1.000822 87.480886 2.510774 87.045397 5.975133 1.285335 -4.794042 -1.914472 -4.798262 17.750943 -0.498331 9.505528 -10.805450 0.000000 -0.000000 0.000000 0.176558 -2.378561 0.365367 -1.499669 3.928647 6.356259 2.915573 -5.351307 -6.038465 0.000000 -0.000000 0.000000 1.343095 2.219669 9.791360 2.192426 -3.477843 3.307431 1.641377 -1.360574 -0.263522 7.327692 -4.896420 -12.240873 8.626130 -9.278348 -6.703797 -23.696006 -5.978131 5.761205 -54.354416 -3.505238 11.653359 5.199615 -20.800102 15.190045 -4.810038 -2.386953 4.054343 21.205985 9.993237 1.831204 53.473259 8.916723 10.185919 -10.517439 23.017642 -3.692050 5.327176 2.371416 -5.812367 
0.039940 0.224625 1.000588 87.665589 2.643835 87.374073 6.080369 1.247232 -5.595970 -1.868568 -4.698382 18.271213 -0.359271 9.413537 -10.793369 0.000000 -0.000000 0.000000 0.203497 -2.738963 0.016429 -1.323903 4.031725 6.084334 2.848503 -5.389516 -5.633107 0.000000 -0.000000 0.000000 1.343812 2.394532 9.752641 2.205186 -3.227153 3.528931 1.779308 -1.010606 -0.492375 7.245058 -5.037663 -11.726927 8.547416 -8.970514 -6.451611 -23.894868 -6.282457 5.442031 -54.218023 -4.874486 11.181677 5.534464 -20.784168 13.799915 -4.311765 -2.543669 2.974430 21.130010 10.933457 2.369698 52.318853 9.268880 10.075199 -11.164882 21.008216 -4.395104 4.468683 2.002115 -5.073815 
